<svg width="180" height="180" viewBox="0 0 180 180" fill="none" xmlns="http://www.w3.org/2000/svg">
<rect width="180" height="180" rx="2" fill="#0026FF"/>
<path fill-rule="evenodd" clip-rule="evenodd" d="M141.187 69.3472C136.646 63.7817 130.828 61 123.736 61C117.588 61 112.452 63.24 108.329 67.7199V62.0834H95.4375V135H108.329V114.169C112.452 118.649 117.588 120.891 123.736 120.891C130.828 120.891 136.646 118.125 141.187 112.597C145.729 107.034 148 99.8256 148 90.9722C148 82.0833 145.729 74.875 141.187 69.3472ZM111.199 103.946C113.836 107.136 117.285 108.73 121.548 108.73C125.847 108.73 129.188 107.172 131.572 104.057C133.956 100.942 135.148 96.5888 135.148 90.9989C135.148 85.3689 133.956 80.9978 131.572 77.8831C129.188 74.7685 125.847 73.21 121.548 73.21C117.285 73.21 113.836 74.804 111.199 77.9941C108.562 81.1842 107.244 85.5199 107.244 90.9989C107.244 96.4401 108.562 100.756 111.199 103.946Z" fill="white"/>
<path fill-rule="evenodd" clip-rule="evenodd" d="M68.975 62.11H45.05V73.21H32V108.73H45.05V119.83H68.975V108.73H82.025V97.63H79.85C73.8442 97.63 68.975 102.601 68.975 108.73H45.05V96.52H68.975C76.1823 96.52 82.025 90.5571 82.025 83.2V73.21H68.975V62.11ZM45.05 73.21H68.975V85.42H45.05V73.21Z" fill="white"/>
</svg>
