<svg width="32" height="32" viewBox="0 0 32 32" fill="none" xmlns="http://www.w3.org/2000/svg">
<g clip-path="url(#clip0_96_128)">
<path d="M13.3327 19.3797C14.9774 18.4291 17.0211 18.4291 18.6659 19.3797M2.66602 20.0001L3.60133 10.6469C3.6368 10.2923 3.65453 10.115 3.68172 9.96286C4.00231 8.16944 5.49428 6.81922 7.31071 6.67867C7.46477 6.66675 7.64296 6.66675 7.99935 6.66675M29.3327 20.0001L28.3974 10.6469C28.3619 10.2923 28.3442 10.115 28.317 9.96286C27.9964 8.16944 26.5044 6.81922 24.688 6.67867C24.5339 6.66675 24.3557 6.66675 23.9993 6.66675M11.7706 16.2288C13.8534 18.3116 13.8534 21.6885 11.7706 23.7713C9.6878 25.8541 6.31091 25.8541 4.22811 23.7713C2.14532 21.6885 2.14532 18.3116 4.22811 16.2288C6.3109 14.146 9.68778 14.146 11.7706 16.2288ZM27.7706 16.2288C29.8534 18.3116 29.8534 21.6885 27.7706 23.7713C25.6878 25.8541 22.3109 25.8541 20.2281 23.7713C18.1453 21.6885 18.1453 18.3116 20.2281 16.2288C22.3109 14.146 25.6878 14.146 27.7706 16.2288Z" stroke="white" stroke-width="2.5" stroke-linecap="round" stroke-linejoin="round"/>
</g>
<defs>
<clipPath id="clip0_96_128">
<rect width="32" height="32" fill="white"/>
</clipPath>
</defs>
</svg>
