<svg width="32" height="32" viewBox="0 0 32 32" fill="none" xmlns="http://www.w3.org/2000/svg">
<g clip-path="url(#clip0_96_158)">
<path d="M10.666 18.6667C10.666 18.6667 12.666 21.3334 15.9993 21.3334C19.3327 21.3334 21.3327 18.6667 21.3327 18.6667M19.9993 12.0001H20.0127M10.666 12.0001H13.3327M29.3327 16.0001C29.3327 23.3639 23.3631 29.3334 15.9993 29.3334C8.63555 29.3334 2.66602 23.3639 2.66602 16.0001C2.66602 8.63628 8.63555 2.66675 15.9993 2.66675C23.3631 2.66675 29.3327 8.63628 29.3327 16.0001ZM20.666 12.0001C20.666 12.3683 20.3675 12.6667 19.9993 12.6667C19.6312 12.6667 19.3327 12.3683 19.3327 12.0001C19.3327 11.6319 19.6312 11.3334 19.9993 11.3334C20.3675 11.3334 20.666 11.6319 20.666 12.0001Z" stroke="white" stroke-width="2.5" stroke-linecap="round" stroke-linejoin="round"/>
</g>
<defs>
<clipPath id="clip0_96_158">
<rect width="32" height="32" fill="white"/>
</clipPath>
</defs>
</svg>
