<svg width="240" height="240" viewBox="0 0 240 240" fill="none" xmlns="http://www.w3.org/2000/svg">
<path fill-rule="evenodd" clip-rule="evenodd" d="M152.727 98.625V120.5H174.545V98.625H152.727ZM65.4546 98.625V120.5H87.2727V98.625H65.4546ZM65.4546 186.125H109.091V208H65.4546V186.125ZM174.545 186.125V208H130.909V186.125H174.545ZM174.545 54.875V33H196.364V54.875H174.545ZM65.4546 54.875H87.2727V76.75H152.727V54.875H174.545V76.75H196.364V98.625H218.182V120.5H240V186.125H218.182V142.375H196.364V186.125H174.545V164.25H65.4546V186.125H43.6364V142.375H21.8182V186.125H0V120.5H21.8182V98.625H43.6364V76.75H65.4546V54.875ZM43.6364 33H65.4546V54.875H43.6364V33Z" fill="#0026FF"/>
</svg>
