<svg width="240" height="240" viewBox="0 0 240 240" fill="none" xmlns="http://www.w3.org/2000/svg">
<path d="M200.5 44.5L195 124.5L219 151L186 189L166.5 180.5H163L153.5 213L120 223L86.5 213L77 180.5H73.5L54 189L21 151L45 124.5L39.5 44.5L120 18L200.5 44.5ZM118.5 160L107 178L112 182.5H113L119 176H121L127 182.5H128L133 178L121.5 160H118.5ZM75.5 116C63.6259 116 54 125.626 54 137.5C54 149.374 63.6259 159 75.5 159C87.3741 159 97 149.374 97 137.5C97 125.626 87.3741 116 75.5 116ZM164.5 116C152.626 116 143 125.626 143 137.5C143 149.374 152.626 159 164.5 159C176.374 159 186 149.374 186 137.5C186 125.626 176.374 116 164.5 116Z" fill="#0026FF"/>
</svg>
