<svg width="240" height="240" viewBox="0 0 240 240" fill="none" xmlns="http://www.w3.org/2000/svg">
<path fill-rule="evenodd" clip-rule="evenodd" d="M40.5668 44.4034L119.53 18.0835C119.675 18.0302 119.83 18.001 119.99 18.0001C120.157 17.9985 120.32 18.0282 120.472 18.0841L199.433 44.4034C200.018 44.5984 200.398 45.1591 200.358 45.7698L195.318 123.934C195.294 124.296 195.418 124.652 195.662 124.921L218.652 150.365C219.112 150.873 219.116 151.642 218.662 152.156L186.689 188.364C186.293 188.812 185.647 188.95 185.101 188.703L167.259 180.658C167.081 180.579 166.889 180.537 166.695 180.537H164.408C163.803 180.537 163.272 180.931 163.101 181.505L153.826 212.644C153.696 213.085 153.346 213.43 152.9 213.559L120.421 222.934C120.291 222.976 120.153 222.999 120.011 223C119.86 223.001 119.714 222.978 119.577 222.933L87.0988 213.559C86.6537 213.43 86.3048 213.085 86.173 212.644L76.8991 181.505C76.7277 180.931 76.1965 180.537 75.5923 180.537H73.305C73.1105 180.537 72.9186 180.579 72.7411 180.658L54.8999 188.703C54.3523 188.95 53.7065 188.812 53.3105 188.364L21.3369 152.156C20.8835 151.642 20.8883 150.873 21.3478 150.365L44.3376 124.921C44.5814 124.652 44.7057 124.296 44.6824 123.934L39.6416 45.7698C39.602 45.1591 39.9816 44.5984 40.5668 44.4034ZM75.7275 158.888C87.5317 158.888 97.1012 149.401 97.1012 137.699C97.1012 125.996 87.5317 116.51 75.7275 116.51C63.9233 116.51 54.3537 125.996 54.3537 137.699C54.3537 149.401 63.9233 158.888 75.7275 158.888ZM185.65 137.699C185.65 149.401 176.081 158.888 164.276 158.888C152.472 158.888 142.903 149.401 142.903 137.699C142.903 125.996 152.472 116.51 164.276 116.51C176.081 116.51 185.65 125.996 185.65 137.699ZM118.074 160.521L107.389 177.099C107.032 177.654 107.13 178.383 107.621 178.826L111.371 182.205C111.923 182.704 112.777 182.668 113.286 182.125L118.579 176.473C118.838 176.198 119.199 176.042 119.578 176.042H120.357C120.776 176.042 121.171 176.231 121.429 176.558L125.751 182.012C126.226 182.61 127.105 182.702 127.695 182.215L131.82 178.806C132.34 178.377 132.463 177.636 132.111 177.064L121.927 160.544C121.68 160.142 121.239 159.897 120.764 159.897H119.221C118.757 159.897 118.324 160.132 118.074 160.521Z" fill="#0026FF"/>
</svg>
