<svg width="24" height="24" viewBox="0 0 24 24" fill="none" xmlns="http://www.w3.org/2000/svg">
<path fill-rule="evenodd" clip-rule="evenodd" d="M5.45604 2C6.18433 2 6.77473 2.59039 6.77473 3.31868V4.63736H8.09341C8.82169 4.63736 9.41209 5.22776 9.41209 5.95604C9.41209 6.68433 8.82169 7.27473 8.09341 7.27473H6.77473V8.59341C6.77473 9.32169 6.18433 9.91209 5.45604 9.91209C4.72776 9.91209 4.13736 9.32169 4.13736 8.59341V7.27473H2.81868C2.09039 7.27473 1.5 6.68433 1.5 5.95604C1.5 5.22776 2.09039 4.63736 2.81868 4.63736H4.13736V3.31868C4.13736 2.59039 4.72776 2 5.45604 2Z" fill="black"/>
<path fill-rule="evenodd" clip-rule="evenodd" d="M14.6867 3.0989C15.2851 3.0989 15.8084 3.50174 15.9615 4.08014L17.5165 8.85573L21.9391 11.4072C22.3473 11.6427 22.5988 12.0782 22.5988 12.5495C22.5988 13.0207 22.3473 13.4562 21.9391 13.6917L17.5165 16.2432L15.9615 21.0188C15.8084 21.5972 15.2851 22 14.6867 22C14.0884 22 13.5651 21.5972 13.412 21.0188L11.857 16.2432L7.43442 13.6917C7.02622 13.4562 6.77473 13.0207 6.77473 12.5495C6.77473 12.0782 7.02622 11.6427 7.43442 11.4072L11.857 8.85574L13.412 4.08014C13.5651 3.50174 14.0884 3.0989 14.6867 3.0989Z" fill="black"/>
</svg>
