<svg width="24" height="24" viewBox="0 0 24 24" fill="none" xmlns="http://www.w3.org/2000/svg">
<path d="M5.99961 3.6001C4.67413 3.6001 3.59961 4.67461 3.59961 6.0001V8.4001C3.59961 9.72558 4.67413 10.8001 5.99961 10.8001H8.39961C9.72509 10.8001 10.7996 9.72558 10.7996 8.4001V6.0001C10.7996 4.67461 9.72509 3.6001 8.39961 3.6001H5.99961Z" fill="black"/>
<path d="M5.99961 13.2001C4.67413 13.2001 3.59961 14.2746 3.59961 15.6001V18.0001C3.59961 19.3256 4.67413 20.4001 5.99961 20.4001H8.39961C9.72509 20.4001 10.7996 19.3256 10.7996 18.0001V15.6001C10.7996 14.2746 9.72509 13.2001 8.39961 13.2001H5.99961Z" fill="black"/>
<path d="M13.1996 6.0001C13.1996 4.67461 14.2741 3.6001 15.5996 3.6001H17.9996C19.3251 3.6001 20.3996 4.67461 20.3996 6.0001V8.4001C20.3996 9.72558 19.3251 10.8001 17.9996 10.8001H15.5996C14.2741 10.8001 13.1996 9.72558 13.1996 8.4001V6.0001Z" fill="black"/>
<path d="M16.7996 13.2001C17.4623 13.2001 17.9996 13.7374 17.9996 14.4001V15.6001H19.1996C19.8623 15.6001 20.3996 16.1374 20.3996 16.8001C20.3996 17.4628 19.8623 18.0001 19.1996 18.0001H17.9996V19.2001C17.9996 19.8628 17.4623 20.4001 16.7996 20.4001C16.1369 20.4001 15.5996 19.8628 15.5996 19.2001V18.0001H14.3996C13.7369 18.0001 13.1996 17.4628 13.1996 16.8001C13.1996 16.1374 13.7369 15.6001 14.3996 15.6001H15.5996V14.4001C15.5996 13.7374 16.1369 13.2001 16.7996 13.2001Z" fill="black"/>
</svg>
