<svg width="24" height="24" viewBox="0 0 24 24" fill="none" xmlns="http://www.w3.org/2000/svg">
<path fill-rule="evenodd" clip-rule="evenodd" d="M3.59961 7.2001C3.59961 5.21187 5.21138 3.6001 7.19961 3.6001H19.1996C19.6541 3.6001 20.0697 3.8569 20.2729 4.26344C20.4762 4.66998 20.4323 5.15648 20.1596 5.5201L17.0996 9.6001L20.1596 13.6801C20.4323 14.0437 20.4762 14.5302 20.2729 14.9368C20.0697 15.3433 19.6541 15.6001 19.1996 15.6001H7.19961C6.53687 15.6001 5.99961 16.1374 5.99961 16.8001V20.4001C5.99961 21.0628 5.46235 21.6001 4.79961 21.6001C4.13687 21.6001 3.59961 21.0628 3.59961 20.4001V7.2001Z" fill="black"/>
</svg>
